<svg xmlns="http://www.w3.org/2000/svg" viewBox="0 0 1000 83"><path d="M1000 0H0v77.4c11.3-27.5 30.8-42.1 66.2-49 25-4.9 57.4-3.6 98.4-5.2 24.1-1.8 45.9-6.2 66.1-7.2 24.6-1.1 46.7 1.4 66.4 1.3 25.9-.2 47.8-3 66.4-2 28.5 1.4 49.2 7.1 65.7 9.5 31.9 4.7 46.8 6.1 65.8 3.1 12.2-1.9 24.9-.5 36.9-1.8 12.5-1.4 24.5-5.7 36.5-6.4 12.6-.8 25 1.9 36.9 1.9 12.9 0 25.4-2.8 36.9-1.9 13.3 1 25.1 5.7 36 8 12 2.6 33.5.6 59 1.4 17.9.6 38 4.1 58.8 4.4 19.5.3 39.7-2.6 59-2 21 .6 41 4.5 58.6 5.9 27.4 2.1 49.7 2.5 58.5 8.1 11.6 4.2 16 6.7 22.6 16.2 1.8 2.5 3.6 5.9 5.3 9.6V0z" fill="#1d0042"/></svg>