<svg width="80" height="80" viewBox="0 0 80 80" fill="none" xmlns="http://www.w3.org/2000/svg">
<path d="M80 0H0V80H80V0Z" fill="#EF3E42"/>
<path fill-rule="evenodd" clip-rule="evenodd" d="M25.756 61.5576C11.5512 61.5576 7.75119 52.5896 10.1896 39.8184C12.4856 27.768 21.0944 18.4392 34.368 18.4392C39.5352 18.4392 42.9736 19.3744 45.7016 21.0224L40.8248 28.3424C39.6064 27.6208 37.8128 26.9784 34.2976 26.9784C28.0528 26.9784 24.036 30.7808 22.316 39.9616C20.5928 49.0032 22.1696 53.2352 26.5464 53.2352C27.5536 53.2352 28.2704 53.0192 28.6984 52.8792L30.5624 42.9048H26.688L28.052 35.8024H43.048L38.6712 58.9776C35.588 60.6256 31.784 61.5576 25.756 61.5576Z" fill="white"/>
<path fill-rule="evenodd" clip-rule="evenodd" d="M42.9736 61.4872L44.5528 53.2352C47.8528 52.9496 50.7952 50.5096 51.584 46.1368L56.7504 19.0144H68.8064L63.9264 44.772C61.844 55.82 53.4496 61.2704 42.9736 61.4872Z" fill="white"/>
<path fill-rule="evenodd" clip-rule="evenodd" d="M65.6288 54.6767C63.7472 54.6767 62.2224 56.1999 62.2224 58.0815C62.2224 59.9631 63.7472 61.4879 65.6288 61.4879C67.5104 61.4879 69.0368 59.9631 69.0368 58.0815C69.0368 56.1999 67.5096 54.6767 65.6288 54.6767ZM65.6288 60.8551C64.096 60.8551 62.8544 59.6135 62.8544 58.0807C62.8544 56.5495 64.096 55.3079 65.6288 55.3079C67.1624 55.3079 68.4048 56.5495 68.4048 58.0807C68.404 59.6135 67.1624 60.8551 65.6288 60.8551Z" fill="white"/>
<path fill-rule="evenodd" clip-rule="evenodd" d="M66.8792 56.4096C66.7328 56.3552 66.5304 56.3288 66.2688 56.3288H64.7488L64.032 59.7528H64.7376L65.0336 58.3352H65.3208C65.488 58.3352 65.604 58.3568 65.6712 58.4024C65.78 58.4792 65.8824 58.628 65.9792 58.848C66.1568 59.2584 66.2768 59.5592 66.3384 59.7528H67.092C66.9016 59.2616 66.724 58.8864 66.5672 58.6176C66.488 58.484 66.4032 58.3784 66.3136 58.2968C66.6656 58.2528 66.9296 58.1352 67.104 57.9464C67.2784 57.7584 67.3664 57.5168 67.3664 57.2264C67.3664 57.0208 67.3208 56.848 67.232 56.704C67.1432 56.564 67.0256 56.464 66.8792 56.4096ZM66.5584 57.54C66.488 57.6368 66.3928 57.7088 66.2696 57.7544C66.1448 57.7984 65.8944 57.8216 65.516 57.8216H65.1424L65.3344 56.9008H66.1072C66.3152 56.9008 66.452 56.92 66.5128 56.9568C66.6128 57.02 66.6624 57.1136 66.6624 57.2368C66.6624 57.344 66.6272 57.4448 66.5584 57.54Z" fill="white"/>
</svg>
