<svg width="24" height="25" viewBox="0 0 24 25" fill="none" xmlns="http://www.w3.org/2000/svg">
<path d="M17.2595 11.6318C16.4728 11.2841 15.6862 10.935 14.8995 10.5872C14.9918 9.73074 15.0855 8.87425 15.1778 8.01776C15.2361 7.48476 14.5019 7.06721 14.0745 7.38216C13.383 7.89092 12.6915 8.39826 12 8.90702C11.3085 8.39826 10.617 7.89092 9.92545 7.38216C9.49805 7.06721 8.76393 7.48476 8.82215 8.01776C8.91445 8.87425 9.00817 9.73074 9.10046 10.5872C8.31381 10.935 7.52716 11.2841 6.74051 11.6318C6.26057 11.8442 6.26057 12.6907 6.74051 12.903C7.52716 13.2508 8.31381 13.5999 9.10046 13.9476C9.00817 14.8041 8.91445 15.6606 8.82215 16.5171C8.76393 17.0501 9.49805 17.4677 9.92545 17.1527C10.617 16.6439 11.3085 16.1366 12 15.6278C12.6915 16.1366 13.383 16.6439 14.0745 17.1527C14.5019 17.4677 15.2361 17.0501 15.1778 16.5171C15.0855 15.6606 14.9918 14.8041 14.8995 13.9476C15.6862 13.5999 16.4728 13.2508 17.2595 12.903C17.7394 12.6893 17.7394 11.8442 17.2595 11.6318ZM11.6294 14.0845C11.2389 14.3709 10.8484 14.6573 10.4579 14.9452C10.5105 14.4621 10.563 13.9776 10.6155 13.4945C10.6397 13.2664 10.4636 12.9515 10.252 12.8589C9.80618 12.6622 9.36173 12.4641 8.91587 12.2674C9.36173 12.0708 9.80618 11.8727 10.252 11.676C10.4622 11.5834 10.6397 11.2699 10.6155 11.0404C10.563 10.5559 10.5105 10.0728 10.4579 9.58965C10.8484 9.8761 11.2389 10.1625 11.6294 10.4504C11.7387 10.5317 11.8694 10.563 12 10.5573C12.1306 10.563 12.2598 10.5317 12.3706 10.4504C12.7611 10.164 13.1516 9.87752 13.5421 9.58965C13.4895 10.0728 13.437 10.5573 13.3844 11.0404C13.3603 11.2684 13.5364 11.5834 13.7479 11.676C14.1938 11.8727 14.6383 12.0708 15.0841 12.2674C14.6383 12.4641 14.1938 12.6622 13.7479 12.8589C13.5378 12.9515 13.3603 13.2664 13.3844 13.4945C13.437 13.9776 13.4895 14.4621 13.5421 14.9452C13.1516 14.6588 12.7611 14.3723 12.3706 14.0845C12.1803 13.9448 11.8197 13.9448 11.6294 14.0845Z" fill="white"/>
<path d="M12.7426 22.0988V2.4323C12.7426 2.02045 12.4104 1.68555 11.9986 1.68555C11.5882 1.68555 11.2545 2.01902 11.2545 2.4323V22.0988C11.2545 22.5107 11.5868 22.8456 11.9986 22.8456C12.4104 22.8456 12.7426 22.5121 12.7426 22.0988Z" fill="white"/>
<path d="M15.1559 0.218042C14.8662 -0.0726806 14.3948 -0.0726806 14.1052 0.218042L12.0008 2.33006L9.89643 0.218042C9.60676 -0.0726806 9.13534 -0.0726806 8.84567 0.218042C8.556 0.508764 8.556 0.981901 8.84567 1.27262L11.4456 3.88485C11.5975 4.03734 11.8006 4.11002 12.0008 4.10147C12.201 4.10859 12.4026 4.03734 12.556 3.88485L15.1573 1.27405C15.447 0.981901 15.447 0.51019 15.1559 0.218042Z" fill="white"/>
<path d="M15.1551 3.66238C14.8655 3.37166 14.394 3.37166 14.1044 3.66238L12 5.77439L9.89564 3.66238C9.60597 3.37166 9.13455 3.37166 8.84488 3.66238C8.55521 3.9531 8.55521 4.42624 8.84488 4.71696L11.4448 7.32776C11.5967 7.48025 11.7998 7.55293 12 7.54438C12.2002 7.5515 12.4018 7.48025 12.5552 7.32776L15.1565 4.71696C15.4462 4.42624 15.4462 3.9531 15.1551 3.66238Z" fill="white"/>
<path d="M8.84346 24.3153C9.13313 24.606 9.60455 24.606 9.89422 24.3153L11.9986 22.2033L14.1029 24.3153C14.3926 24.606 14.864 24.606 15.1537 24.3153C15.4434 24.0246 15.4434 23.5514 15.1537 23.2607L12.5524 20.6499C12.4004 20.4974 12.1974 20.4247 11.9972 20.4333C11.797 20.4262 11.5953 20.4974 11.442 20.6499L8.84062 23.2607C8.55379 23.5514 8.55379 24.0231 8.84346 24.3153Z" fill="white"/>
<path d="M8.84346 20.871C9.13313 21.1617 9.60455 21.1617 9.89422 20.871L11.9986 18.7589L14.1029 20.871C14.3926 21.1617 14.864 21.1617 15.1537 20.871C15.4434 20.5802 15.4434 20.1071 15.1537 19.8164L12.5524 17.2056C12.4004 17.0531 12.1974 16.9804 11.9972 16.989C11.797 16.9818 11.5953 17.0531 11.442 17.2056L8.84062 19.8164C8.55379 20.1071 8.55379 20.5788 8.84346 20.871Z" fill="white"/>
<path d="M20.8562 16.5362L3.88642 6.70294C3.53144 6.4963 3.07563 6.61886 2.87116 6.97657C2.66527 7.33284 2.78738 7.7903 3.14379 7.99552L20.1136 17.8288C20.4686 18.0354 20.9244 17.9129 21.1288 17.5552C21.3333 17.1989 21.2112 16.7428 20.8562 16.5362Z" fill="white"/>
<path d="M3.18071 3.5003C2.78454 3.60718 2.54883 4.01619 2.65533 4.41379L3.42494 7.29964L0.550968 8.07205C0.154803 8.17893 -0.0809085 8.58794 0.0255875 8.98555C0.132084 9.38315 0.539608 9.61972 0.935773 9.51284L4.4899 8.55659C4.69863 8.50101 4.86193 8.36135 4.95422 8.18321C5.06072 8.01362 5.10048 7.80128 5.04368 7.59321L4.09089 4.02616C3.98582 3.62998 3.57829 3.39341 3.18071 3.5003Z" fill="white"/>
<path d="M6.15271 5.22295C5.75655 5.32984 5.52083 5.73884 5.62733 6.13645L6.39694 9.0223L3.52155 9.79471C3.12538 9.90159 2.88967 10.3106 2.99617 10.7082C3.10266 11.1058 3.51019 11.3424 3.90635 11.2355L7.46048 10.2792C7.66921 10.2237 7.83251 10.084 7.9248 9.90587C8.0313 9.73628 8.07106 9.52394 8.01426 9.31587L7.06148 5.74882C6.9564 5.35264 6.54888 5.11607 6.15271 5.22295Z" fill="white"/>
<path d="M20.8178 21.0333C21.214 20.9265 21.4497 20.5174 21.3432 20.1198L20.5736 17.234L23.449 16.4616C23.8452 16.3547 24.0809 15.9457 23.9744 15.5481C23.8679 15.1505 23.4604 14.9139 23.0642 15.0208L19.5101 15.977C19.3013 16.0326 19.138 16.1723 19.0458 16.3504C18.9393 16.52 18.8995 16.7324 18.9563 16.9404L19.9091 20.5075C20.0142 20.9051 20.4217 21.1402 20.8178 21.0333Z" fill="white"/>
<path d="M17.8474 19.3107C18.2435 19.2038 18.4793 18.7948 18.3728 18.3972L17.6032 15.5113L20.4785 14.7389C20.8747 14.632 21.1104 14.223 21.0039 13.8254C20.8974 13.4278 20.4899 13.1913 20.0937 13.2981L16.5396 14.2544C16.3309 14.31 16.1676 14.4496 16.0753 14.6278C15.9688 14.7974 15.929 15.0097 15.9858 15.2178L16.9386 18.7848C17.0423 19.181 17.4498 19.4176 17.8474 19.3107Z" fill="white"/>
<path d="M20.1136 6.70622L3.14383 16.5395C2.78884 16.7461 2.66672 17.2022 2.8712 17.5584C3.07709 17.9147 3.53147 18.0373 3.88646 17.8321L20.8562 7.99879C21.2112 7.79215 21.3333 7.33612 21.1289 6.97984C20.923 6.62214 20.4686 6.501 20.1136 6.70622Z" fill="white"/>
<path d="M0.0255875 15.551C-0.0809085 15.9486 0.154803 16.3576 0.550968 16.4645L3.42636 17.2369L2.65675 20.1228C2.55025 20.5204 2.78596 20.9294 3.18213 21.0363C3.57829 21.1432 3.98582 20.9066 4.09232 20.509L5.0451 16.9419C5.10048 16.7324 5.06214 16.5215 4.95564 16.3519C4.86193 16.1738 4.69863 16.0341 4.49132 15.9786L0.935773 15.0237C0.539608 14.9168 0.132084 15.1534 0.0255875 15.551Z" fill="white"/>
<path d="M2.99751 13.8292C2.89102 14.2268 3.12673 14.6358 3.52289 14.7427L6.39828 15.5151L5.62867 18.401C5.52218 18.7986 5.75789 19.2076 6.15405 19.3144C6.55022 19.4213 6.95774 19.1848 7.06424 18.7872L8.01702 15.2201C8.0724 15.0106 8.03406 14.7997 7.92757 14.6301C7.83385 14.452 7.67056 14.3123 7.46324 14.2567L3.90912 13.3005C3.51011 13.195 3.10259 13.4316 2.99751 13.8292Z" fill="white"/>
<path d="M23.9744 8.98847C24.0809 8.59087 23.8452 8.18186 23.4491 8.07498L20.5737 7.30257L21.3433 4.41672C21.4498 4.01911 21.2141 3.6101 20.8179 3.50322C20.4217 3.39634 20.0142 3.6329 19.9077 4.03051L18.9549 7.59756C18.8996 7.80705 18.9379 8.01797 19.0444 8.18756C19.1381 8.3657 19.3014 8.50536 19.5087 8.56094L23.0628 9.51719C23.4604 9.62265 23.8679 9.38608 23.9744 8.98847Z" fill="white"/>
<path d="M21.0024 10.7092C21.1089 10.3116 20.8732 9.90256 20.477 9.79568L17.6016 9.02327L18.3712 6.13742C18.4777 5.73981 18.242 5.33081 17.8459 5.22392C17.4497 5.11704 17.0422 5.35361 16.9357 5.75121L15.9829 9.31827C15.9275 9.52776 15.9658 9.73867 16.0723 9.90826C16.1661 10.0864 16.3294 10.2261 16.5367 10.2816L20.0908 11.2379C20.4884 11.3433 20.8959 11.1082 21.0024 10.7092Z" fill="white"/>
</svg>
