<?xml version="1.0" encoding="utf-8"?>
<!-- Generator: Adobe Illustrator 23.1.0, SVG Export Plug-In . SVG Version: 6.00 Build 0)  -->
<svg version="1.1" id="Layer_1" xmlns="http://www.w3.org/2000/svg" xmlns:xlink="http://www.w3.org/1999/xlink" x="0px" y="0px"
	 viewBox="0 0 22.7 24.1" style="enable-background:new 0 0 22.7 24.1;" xml:space="preserve">
<style type="text/css">
	.st0{fill:#FFFFFF;}
</style>
<g>
	<path class="st0" d="M17,11.4c-0.9-0.4-1.7-0.8-2.6-1.1c0.1-0.9,0.2-1.9,0.3-2.8c0.1-0.6-0.7-1-1.2-0.7c-0.7,0.6-1.5,1.1-2.2,1.6
		c-0.7-0.6-1.5-1.1-2.2-1.6C8.6,6.4,7.8,6.9,7.9,7.4c0.1,1,0.2,1.9,0.3,2.8c-0.9,0.4-1.7,0.8-2.6,1.1c-0.5,0.2-0.5,1.1,0,1.4
		c0.9,0.4,1.7,0.8,2.6,1.1c-0.1,0.9-0.2,1.9-0.3,2.8c-0.1,0.6,0.7,1,1.2,0.7c0.7-0.6,1.5-1.1,2.2-1.6c0.7,0.6,1.5,1.1,2.2,1.6
		c0.5,0.3,1.3-0.1,1.2-0.7c-0.1-0.9-0.2-1.9-0.3-2.8c0.9-0.4,1.7-0.8,2.6-1.1C17.5,12.5,17.5,11.6,17,11.4z M10.9,14
		c-0.4,0.3-0.8,0.6-1.3,0.9c0.1-0.5,0.1-1,0.2-1.6c0-0.2-0.2-0.6-0.4-0.7C9,12.5,8.5,12.3,8,12c0.5-0.2,1-0.4,1.4-0.6
		c0.2-0.1,0.4-0.4,0.4-0.7c-0.1-0.5-0.1-1-0.2-1.6c0.4,0.3,0.8,0.6,1.3,0.9c0.1,0.1,0.3,0.1,0.4,0.1s0.3,0,0.4-0.1
		c0.4-0.3,0.8-0.6,1.3-0.9c-0.1,0.5-0.1,1-0.2,1.6c0,0.2,0.2,0.6,0.4,0.7c0.5,0.2,1,0.4,1.4,0.6c-0.5,0.2-1,0.4-1.4,0.6
		c-0.2,0.1-0.4,0.4-0.4,0.7c0.1,0.5,0.1,1,0.2,1.6c-0.4-0.3-0.8-0.6-1.3-0.9C11.5,13.9,11.1,13.9,10.9,14z"/>
	<path class="st0" d="M12.1,22.6V1.5c0-0.4-0.4-0.8-0.8-0.8c-0.4,0-0.8,0.4-0.8,0.8v21.2c0,0.4,0.4,0.8,0.8,0.8
		C11.8,23.4,12.1,23,12.1,22.6z"/>
	<path class="st0" d="M22.5,8c0.1-0.4-0.1-0.9-0.6-1l-1.4-0.4l0.4-1.4c0.1-0.4-0.1-0.9-0.6-1c-0.4-0.1-0.9,0.1-1,0.6L18.9,7
		c-0.1,0.2,0,0.5,0.1,0.6c0.1,0.2,0.3,0.3,0.5,0.4l2.2,0.6C22,8.7,22.4,8.4,22.5,8z"/>
	<path class="st0" d="M0.1,16.1c-0.1,0.4,0.1,0.9,0.6,1l1.4,0.4l-0.4,1.4c-0.1,0.4,0.1,0.9,0.6,1c0.4,0.1,0.9-0.1,1-0.6l0.6-2.2
		c0.1-0.2,0-0.5-0.1-0.6c-0.1-0.2-0.3-0.3-0.5-0.4l-2.2-0.6C0.7,15.4,0.2,15.7,0.1,16.1z"/>
	<path class="st0" d="M2.2,4.2c-0.4,0.1-0.7,0.6-0.6,1l0.4,1.5L0.7,7C0.3,7.1,0,7.6,0.1,8s0.6,0.7,1,0.6L3.2,8
		c0.2,0,0.4-0.2,0.5-0.4C3.8,7.4,3.9,7.2,3.8,7L3.2,4.8C3.1,4.4,2.7,4.1,2.2,4.2z"/>
	<path class="st0" d="M20.5,19.9c0.4-0.1,0.7-0.6,0.6-1l-0.4-1.4l1.4-0.4c0.4-0.1,0.7-0.6,0.6-1c-0.1-0.4-0.6-0.7-1-0.6l-2.2,0.6
		c-0.2,0.1-0.4,0.2-0.5,0.4c-0.1,0.2-0.2,0.4-0.1,0.6l0.6,2.2C19.6,19.7,20,20,20.5,19.9z"/>
	<path class="st0" d="M13.5,0.3c-0.3-0.3-0.8-0.3-1.1,0l-1,1.1l-1-1.1C10.1,0,9.6,0,9.3,0.3S9,1.1,9.3,1.4L10.7,3
		c0.2,0.2,0.4,0.2,0.6,0.2c0.2,0,0.4-0.1,0.6-0.2l1.6-1.6C13.8,1.2,13.8,0.7,13.5,0.3z"/>
	<path class="st0" d="M14.8,2.8c-0.3-0.3-0.8-0.3-1.1,0L11.3,5L9.1,2.8C8.8,2.5,8.3,2.5,8,2.8S7.7,3.5,8,3.8l2.8,2.8
		c0.2,0.2,0.4,0.2,0.6,0.2s0.4-0.1,0.6-0.2l2.8-2.8C15.1,3.6,15.1,3.1,14.8,2.8z"/>
	<path class="st0" d="M7.9,21.3c0.3,0.3,0.8,0.3,1.1,0l2.3-2.3l2.3,2.3c0.3,0.3,0.8,0.3,1.1,0c0.3-0.3,0.3-0.8,0-1.1l-2.8-2.8
		c-0.2-0.2-0.4-0.2-0.6-0.2s-0.4,0.1-0.6,0.2l-2.8,2.8C7.6,20.5,7.6,21,7.9,21.3z"/>
	<path class="st0" d="M20.8,16.7L2.6,6C2.2,5.8,1.8,5.9,1.6,6.3C1.3,6.7,1.5,7.2,1.9,7.4L20.2,18c0.4,0.2,0.9,0.1,1.1-0.3
		C21.3,17.4,21.2,16.9,20.8,16.7z"/>
	<path class="st0" d="M5,4.4C4.6,4.5,4.3,5,4.4,5.4l0.8,3.1l-3,0.9c-0.4,0.1-0.7,0.6-0.6,1s0.6,0.7,1,0.6l3.8-1
		c0.2-0.1,0.4-0.2,0.5-0.4C7,9.3,7.1,9.1,7,8.9L6,5C5.9,4.6,5.4,4.3,5,4.4z"/>
	<path class="st0" d="M17.7,19.7c0.4-0.1,0.7-0.6,0.6-1l-0.8-3.1l3.1-0.8c0.4-0.1,0.7-0.6,0.6-1c-0.1-0.4-0.6-0.7-1-0.6l-3.8,1
		c-0.2,0.1-0.4,0.2-0.5,0.4c-0.1,0.2-0.2,0.4-0.1,0.6l1,3.9C16.8,19.5,17.2,19.8,17.7,19.7z"/>
	<path class="st0" d="M20.1,6L1.9,16.7c-0.4,0.2-0.5,0.7-0.3,1.1s0.7,0.5,1.1,0.3L20.8,7.4c0.4-0.2,0.5-0.7,0.3-1.1S20.5,5.8,20.1,6
		z"/>
	<path class="st0" d="M1.7,13.7c-0.1,0.4,0.1,0.9,0.6,1l3.1,0.8l-0.8,3.1c-0.1,0.4,0.1,0.9,0.6,1c0.4,0.1,0.9-0.1,1-0.6l1-3.9
		c0.1-0.2,0-0.5-0.1-0.6c-0.1-0.2-0.3-0.3-0.5-0.4l-3.8-1C2.2,13,1.8,13.3,1.7,13.7z"/>
	<path class="st0" d="M21,10.4c0.1-0.4-0.1-0.9-0.6-1l-3.1-0.8l0.8-3.1c0.1-0.4-0.1-0.9-0.6-1c-0.4-0.1-0.9,0.1-1,0.6l-1,3.9
		c-0.1,0.2,0,0.5,0.1,0.6c0.1,0.2,0.3,0.3,0.5,0.4l3.8,1C20.5,11,20.9,10.8,21,10.4z"/>
	<path class="st0" d="M9.2,23.8c0.3,0.3,0.8,0.3,1.1,0l1-1.1l1,1.1c0.3,0.3,0.8,0.3,1.1,0s0.3-0.8,0-1.1l-1.6-1.6
		C11.6,21,11.4,21,11.2,21s-0.4,0.1-0.6,0.2L9,22.7C8.8,22.9,8.8,23.4,9.2,23.8z"/>
</g>
</svg>
