<svg version="1.1" id="Layer_1" xmlns="http://www.w3.org/2000/svg" x="0" y="0" viewBox="0 0 1000 83" xml:space="preserve"><style>.st0{fill:none}</style><path class="st0" d="M57.1 32.8v.7l1.1-.4-1.1-.3zM57 32.7l-.5-.1c-.3.7-.5 1.4-.6 1.4l1-.4c0-.3.1-.6.1-.9zM57.1 31.1l.1-.1c-.1 0-.1 0-.1.1zM57.1 32.6l1.1.5h.1l-1.2-.5zM55.2 31.9c0 .1 0 .1 0 0l.2.1s.1 0 .1-.1h-.3zM57 32.6l-.4-.2v.1l.4.1zM6.1 56.2H6c-.4.4-2.5 1.9-2.4 2.1.1.2.2.3.1.1-.1-.1 2.5-2 2.4-2.2zM2.4 53.7c0 .1.1.1.3.2-.2-1-.4-1.5-.3-.2zM996.2 68.3c-6.6-9.5-12.3-15.8-24-20-8.8-5.6-30.2-4.7-57.7-6.8-17.7-1.4-37.6-5.3-58.7-5.9-19.3-.6-39.5 2.3-59 2-20.8-.3-40.9-3.8-58.8-4.4-25.6-.8-47.1 1.1-59.1-1.4-10.9-2.2-22.8-7-36.1-8-11.6-.9-24.1 1.9-37 1.9-11.9 0-24.3-2.7-37-1.9-12 .7-24 5-36.5 6.4-12.1 1.4-24.8-.1-37 1.8-19 3-33.9 1.6-65.8-3.1-16.5-2.4-37.2-8.1-65.7-9.5-18.7-1-40.3 4.1-66.1 4.4-19.7.2-42.2-4.8-66.8-3.7-31.2 3.7-42.1 5.4-66.2 7.2-41 1.6-73.5.3-98.5 5.2C30.9 39.3 11.4 54 0 81.5V83h1000v-6.8c-1.1-2.3-2.4-4.9-3.8-7.9zM5.7 54.8l.2.2c.1.4-1.7.9-2.6 1.4 1-.3 2.9-.8 2.8-1.3 0-.1-.2-.2-.4-.3zM4.2 56.5c-.5.1-1 .2-1.2.2-.1.1-.1.2-.1.2-.1 0 .5-.2 1.3-.4z"/></svg>